<svg xmlns="http://www.w3.org/2000/svg" xmlns:svgjs="http://svgjs.com/svgjs" xmlns:xlink="http://www.w3.org/1999/xlink" style="enable-background:new 0 0 512 512" width="512" height="512" x="0" y="0" version="1.1" viewBox="0 0 512 512" xml:space="preserve"><g><path xmlns="http://www.w3.org/2000/svg" fill="#0c6ff9" d="m512 256c0 141.386719-114.613281 256-256 256s-256-114.613281-256-256 114.613281-256 256-256 256 114.613281 256 256zm0 0" data-original="#ffd400"/><path xmlns="http://www.w3.org/2000/svg" fill="#0c6ff9" d="m512 256c0-13.238281-1.007812-26.246094-2.945312-38.945312l-129.054688-129.054688-248 339 81.460938 81.460938c13.839843 2.316406 28.046874 3.539062 42.539062 3.539062 141.386719 0 256-114.613281 256-256zm0 0" data-original="#fdba12"/><path xmlns="http://www.w3.org/2000/svg" fill="#fff" d="m197 88-65 65v274h248v-339zm0 0" data-original="#ffffff"/><path xmlns="http://www.w3.org/2000/svg" fill="#e9edf5" d="m254.859375 88h125.140625v339h-125.140625zm0 0" data-original="#e9edf5"/><path xmlns="http://www.w3.org/2000/svg" fill="#ff7e1d" d="m197 153v-65l-65 65zm0 0" data-original="#fe6a16"/><path xmlns="http://www.w3.org/2000/svg" fill="#bec3d2" d="m163.332031 180.332031h185.332031v18.667969h-185.332031zm0 0" data-original="#bec3d2"/><path xmlns="http://www.w3.org/2000/svg" fill="#afb4c8" d="m254.859375 180.332031h93.808594v18.667969h-93.808594zm0 0" data-original="#afb4c8"/><path xmlns="http://www.w3.org/2000/svg" fill="#bec3d2" d="m163.332031 233.265625h185.332031v18.667969h-185.332031zm0 0" data-original="#bec3d2"/><path xmlns="http://www.w3.org/2000/svg" fill="#afb4c8" d="m254.859375 233.265625h93.808594v18.667969h-93.808594zm0 0" data-original="#afb4c8"/><path xmlns="http://www.w3.org/2000/svg" fill="#bec3d2" d="m163.332031 286.199219h185.332031v18.667969h-185.332031zm0 0" data-original="#bec3d2"/><path xmlns="http://www.w3.org/2000/svg" fill="#afb4c8" d="m254.859375 286.199219h93.808594v18.667969h-93.808594zm0 0" data-original="#afb4c8"/><path xmlns="http://www.w3.org/2000/svg" fill="#bec3d2" d="m163.332031 339.132812h185.332031v18.664063h-185.332031zm0 0" data-original="#bec3d2"/><path xmlns="http://www.w3.org/2000/svg" fill="#afb4c8" d="m254.859375 339.132812h93.808594v18.664063h-93.808594zm0 0" data-original="#afb4c8"/><path xmlns="http://www.w3.org/2000/svg" fill="#ff7e1d" d="m301.996094 274.390625c0-22.710937 18.414062-41.125 41.125-41.125 17.726562 0 32.832031 11.214844 38.609375 26.9375 5.777343-15.722656 20.882812-26.9375 38.609375-26.9375 22.710937 0 41.125 18.410156 41.125 41.125 0 59.671875-79.734375 91.164063-79.734375 91.164063s-79.734375-32.789063-79.734375-91.164063zm0 0" data-original="#fe6a16"/><path xmlns="http://www.w3.org/2000/svg" fill="#ff7e1d" d="m461.464844 274.390625c0-22.710937-18.414063-41.125-41.125-41.125-17.707032 0-32.796875 11.191406-38.589844 26.886719v105.394531c.824219-.328125 79.714844-31.796875 79.714844-91.15625zm0 0" data-original="#f24500"/></g></svg>