<svg xmlns="http://www.w3.org/2000/svg" width="266" height="60" fill="none" viewBox="0 0 266 60"><path fill="#4B4C4D" d="M65.032 32.504V47H69.256V32.504L79.096 13.4H74.44L67.144 28.28L59.848 13.4H55.192L65.032 32.504ZM95.8683 13.016C87.8523 13.016 80.7963 19.016 80.7963 30.2C80.7963 41.384 87.8523 47.384 95.8683 47.384C103.884 47.384 110.94 41.384 110.94 30.2C110.94 19.016 103.884 13.016 95.8683 13.016ZM95.8683 17.048C101.82 17.048 106.572 21.416 106.572 30.2C106.572 38.984 101.82 43.352 95.8683 43.352C89.9163 43.352 85.1643 38.984 85.1643 30.2C85.1643 21.416 89.9163 17.048 95.8683 17.048ZM133.137 34.088H140.385C140.001 39.464 136.929 43.352 131.121 43.352C124.929 43.352 120.321 38.888 120.321 30.2C120.321 21.512 124.929 17.048 131.121 17.048C135.585 17.048 138.705 19.688 140.241 24.392L144.321 23.192C142.833 17.096 138.177 13.016 131.121 13.016C123.297 13.016 115.953 18.536 115.953 30.2C115.953 41.864 123.297 47.384 130.929 47.384C135.489 47.384 138.801 45.176 140.385 42.392L140.817 47H144.417V30.056H133.137V34.088ZM149.092 47H153.316L156.292 38.024H169.156L172.132 47H176.356L164.74 13.4H160.708L149.092 47ZM157.636 33.992L162.724 18.872L167.812 33.992H157.636ZM181.062 13.4V47H200.55V42.968H185.286V13.4H181.062ZM206.094 13.4V47H210.318V13.4H206.094ZM218.281 13.4V47H222.505V31.496H234.937V27.464H222.505V17.432H237.817V13.4H218.281ZM243.453 13.4V47H263.229V42.968H247.677V31.112H259.869V27.08H247.677V17.432H262.749V13.4H243.453Z"/><g clip-path="url(#clip0)"><path fill="#FF7E1D" d="M49.5709 42.6852C48.8654 41.9515 48.1136 41.288 47.3198 40.6939C45.6288 42.7251 43.6433 44.4322 41.4046 45.7762C37.937 47.8588 33.9932 48.9706 29.991 48.9969C32.1162 49.8882 34.4074 50.3558 36.768 50.3558C41.6043 50.3558 46.1512 48.397 49.571 44.8404C49.8457 44.5547 50.0001 44.1673 50.0001 43.7633C50 43.3592 49.8456 42.971 49.5709 42.6852Z"/><path fill="#FF7E1D" d="M2.68018 40.6939C1.88643 41.2881 1.13457 41.9516 0.429102 42.6852C0.154395 42.971 0 43.3592 0 43.7633C0 44.1673 0.154395 44.5547 0.429102 44.8404C3.84893 48.397 8.3958 50.3558 13.2321 50.3558C15.5927 50.3558 17.8839 49.8882 20.0091 48.9969C16.0066 48.9706 12.0631 47.8588 8.59512 45.776C6.35664 44.4322 4.37109 42.7251 2.68018 40.6939V40.6939Z"/><path fill="#FF7E1D" d="M10.0601 43.1375C12.4953 44.6 15.3265 45.5807 18.3449 45.8649C13.1292 42.8626 10.3104 38.6944 8.98352 36.3043C7.52434 33.6761 6.53811 30.8284 6.04768 27.8319C4.59055 27.8969 3.13996 28.1231 1.72863 28.5132C1.0841 28.6733 0.604904 29.2767 0.604904 29.9959C0.604904 30.1292 0.621701 30.2618 0.654904 30.3905C2.151 36.194 5.80393 40.5823 10.0601 43.1375Z"/><path fill="#FF7E1D" d="M31.6551 45.8649C34.6734 45.5806 37.5047 44.6 39.9399 43.1375C44.1961 40.5823 47.849 36.194 49.3452 30.3906C49.3784 30.2619 49.3952 30.1293 49.3952 29.996C49.3952 29.2768 48.916 28.6734 48.2715 28.5133C46.8602 28.1232 45.4096 27.8969 43.9524 27.832C43.462 30.8285 42.4758 33.6762 41.0166 36.3044C39.6896 38.6945 36.8741 42.8607 31.6551 45.8649V45.8649Z"/><path fill="#FF7E1D" d="M18.2911 42.2682C16.8109 39.7816 14.5122 35.0085 14.5122 28.4655C14.5122 25.1499 15.1023 21.9248 16.2647 18.8649C14.6637 17.9152 12.9471 17.1766 11.1599 16.6788C10.3782 16.4612 9.57539 16.9432 9.36592 17.7558C7.76709 23.9591 8.89473 30.0513 11.5206 34.7809C13.1148 37.6526 15.4043 40.2765 18.2911 42.2682Z"/><path fill="#FF7E1D" d="M31.7074 42.2691C34.5949 40.2773 36.8849 37.6529 38.4793 34.7809C41.1052 30.0512 42.2328 23.9591 40.634 17.7558C40.4245 16.9432 39.6217 16.4611 38.84 16.6788C37.0525 17.1766 35.3358 17.9154 33.7347 18.8653C34.8968 21.925 35.4869 25.15 35.4869 28.4655C35.487 35.014 33.1842 39.7885 31.7074 42.2691Z"/><path fill="#FF7E1D" d="M26.0357 12.0904C25.761 11.8047 25.3876 11.6441 24.9991 11.6441C24.6107 11.6441 24.2381 11.8047 23.9634 12.0904C20.1266 16.0807 17.4419 21.8409 17.4419 28.4654C17.4419 35.093 20.1296 40.8534 23.9634 44.8404C24.2381 45.1261 24.6115 45.2867 25 45.2867C25.3885 45.2867 25.761 45.1261 26.0357 44.8404C29.8686 40.8544 32.5572 35.0945 32.5572 28.4654C32.5573 21.8378 29.8706 16.0784 26.0357 12.0904V12.0904Z"/></g><defs><clipPath id="clip0"><rect width="50" height="52" fill="#fff" transform="translate(0 5)"/></clipPath></defs></svg>